<svg width="33" height="39" viewBox="0 0 33 39" fill="none" xmlns="http://www.w3.org/2000/svg">
<g id="Artboard 69">
<path id="Path" d="M32.1869 33.188C22.9462 40.3031 10.057 40.2462 0.879395 33.0497L7.60592 29.8966C7.92627 29.746 8.23372 29.5694 8.52519 29.3685C8.61366 29.3077 8.70213 29.2441 8.78645 29.1778C9.51853 28.6176 10.1211 27.9061 10.5531 27.0918C10.8797 26.4661 11.0966 25.7891 11.1945 25.0901C11.262 24.6366 11.2962 24.1787 11.2968 23.7202C11.2968 22.9295 11.254 22.1388 11.2457 21.3467C11.2401 20.9081 11.2355 20.4698 11.2318 20.0321L11.5083 20.1703L12.2271 20.5422L12.5603 20.5989L16.4143 21.2541L20.7162 21.9868L20.8461 26.4103L20.889 27.8562L20.9097 28.5585V28.6041L22.5823 29.2842L32.1869 33.188Z" fill="#DE8276"/>
<path id="Path_2" d="M20.882 28.329C20.4069 28.4108 19.9181 28.335 19.49 28.1134L11.2415 21.3702C11.2318 21.0578 11.2235 21.3855 11.2194 21.073C11.2139 20.6344 11.2093 20.1962 11.2056 19.7584L11.482 19.8967L12.2009 20.2685L12.534 20.3252L16.388 20.9804L20.6899 21.7131L20.8198 26.1366L20.8627 27.5825L20.8834 28.2848V28.3304L20.882 28.329Z" fill="#A76962"/>
<path id="Path_3" d="M25.1397 16.3094C24.9248 16.5342 24.6892 16.7383 24.4361 16.919C22.9985 17.9599 21.0798 18.3014 19.4403 18.8626C18.7491 19.099 11.254 21.2292 11.254 21.6923C11.254 21.5914 10.52 20.8629 9.59517 19.9782C6.40548 16.9232 5.3421 12.2619 6.89129 8.12588C8.39944 4.16267 13.2073 1.43114 17.2341 0.799406C19.1514 0.499435 21.4267 0.33217 23.1975 1.25143C24.103 1.72282 24.8564 2.40985 25.5475 3.17152C25.7632 3.41205 25.9724 3.65765 26.1751 3.90832C26.2622 4.01338 26.3479 4.11843 26.4322 4.22488C29.5799 8.17841 28.4643 12.8162 25.1397 16.3094Z" fill="url(#paint0_linear_497_906)"/>
<path id="Path_4" d="M25.1396 16.3094C24.9247 16.5342 24.6891 16.7383 24.436 16.919C24.377 16.8161 24.3239 16.71 24.2771 16.601C23.9121 15.7716 23.7241 14.8717 23.5859 13.9746C23.3706 12.669 23.2234 11.353 23.1449 10.0321C23.0191 7.91158 22.1137 6.85961 23.9149 5.20631C24.5631 4.61226 25.335 4.1694 26.175 3.90967C26.2621 4.01473 26.3478 4.11979 26.4321 4.22623C29.5798 8.17837 28.4642 12.8162 25.1396 16.3094Z" fill="url(#paint1_linear_497_906)"/>
<ellipse id="Oval" cx="9.87161" cy="16.1642" rx="2.35" ry="2.35" fill="#E18477"/>
<circle id="Oval_2" cx="10.6181" cy="16.1642" r="2.10394" fill="#A76962"/>
<path id="Path_5" d="M10.7936 13.9359C10.9083 15.4371 10.9042 17.2701 10.9443 17.8065C11.0484 19.151 11.1516 20.4951 11.2539 21.8388L20.4383 27.2037C21.7565 27.6964 23.2332 27.107 23.8499 25.8421C25.1715 23.1354 27.292 18.8612 27.0127 17.2715C26.598 14.9215 25.4922 14.0921 25.4922 14.0921L25.9525 11.3357C26.4183 8.53364 25.4576 5.88091 22.1842 5.57402C21.493 5.51044 20.723 5.64176 20.3125 6.19332C19.2066 7.68073 19.8439 9.51096 18.1837 10.8933C16.1682 12.5563 11.6714 13.282 10.618 11.9398C10.618 11.9398 10.7148 12.8894 10.7936 13.9359Z" fill="#DE8276"/>
<path id="Path_6" d="M17.686 19.7998C18.3502 20.5415 19.2607 21.0174 20.2489 21.1393" stroke="#00214E"/>
<path id="Path_7" d="M20.9511 13.2738C20.9401 13.3222 22.7979 18.2682 22.7979 18.2682L20.318 18.3885" stroke="#00214E"/>
<path id="Path_8" d="M15.079 12.3144C16.3586 12.0497 17.6749 12.0123 18.9675 12.2038" stroke="#00214E"/>
<path id="Path_9" d="M23.2417 12.3324C24.0317 12.1483 24.8461 12.0918 25.6539 12.1651" stroke="#00214E"/>
<path id="Path_10" d="M32.1869 33.1879C22.9462 40.3031 10.057 40.2462 0.879395 33.0497L7.60592 29.8965C7.92627 29.7459 8.23372 29.5693 8.52519 29.3685C8.61366 29.3076 8.70213 29.2441 8.78645 29.1777C9.51853 28.6176 10.1211 27.906 10.5531 27.0917C10.8797 26.4661 11.0966 25.789 11.1945 25.0901C11.2921 25.1847 11.3946 25.2742 11.5014 25.3583C12.349 25.985 13.2689 26.5076 14.2412 26.9148C14.7133 27.1117 15.196 27.282 15.6872 27.4249C17.1668 27.8563 18.7117 28.0197 20.2489 27.9073C20.4618 27.8907 20.6761 27.87 20.889 27.8548L20.9097 28.557V28.6026L22.5823 29.2828L32.1869 33.1879Z" fill="#00214E"/>
<path id="Path_11" d="M16.9631 13.8682C17.8063 13.8682 17.8063 15.1648 16.9631 15.1717H16.9244C16.0797 15.1717 16.0797 13.8751 16.9244 13.8682H16.9617H16.9631Z" fill="#00214E"/>
<path id="Path_12" d="M23.8928 13.676C24.6752 13.6829 24.6752 14.8787 23.8928 14.8856H23.8568C23.0744 14.8856 23.0744 13.6829 23.8568 13.676H23.8928Z" fill="#00214E"/>
</g>
<defs>
<linearGradient id="paint0_linear_497_906" x1="6.18076" y1="21.6977" x2="28.2956" y2="21.6977" gradientUnits="userSpaceOnUse">
<stop stop-color="#16243F"/>
<stop offset="1" stop-color="#6878B1"/>
</linearGradient>
<linearGradient id="paint1_linear_497_906" x1="19.2052" y1="12.4616" x2="28.4776" y2="15.0923" gradientUnits="userSpaceOnUse">
<stop stop-color="#16243F"/>
<stop offset="1" stop-color="#6878B1"/>
</linearGradient>
</defs>
</svg>
